<?xml version="1.0" encoding="utf-8"?>
<!-- Generator: Adobe Illustrator 26.1.0, SVG Export Plug-In . SVG Version: 6.00 Build 0)  -->
<svg version="1.1" id="Layer_1" xmlns="http://www.w3.org/2000/svg" xmlns:xlink="http://www.w3.org/1999/xlink" x="0px" y="0px"
	 viewBox="0 0 1035.9 1035.9" style="enable-background:new 0 0 1035.9 1035.9;" xml:space="preserve">
<style type="text/css">
	.st0{fill-rule:evenodd;clip-rule:evenodd;fill:#F2F2F2;}
</style>
<path class="st0" d="M517.9,0C231.9,0,0,231.9,0,517.9s231.9,517.9,517.9,517.9s517.9-231.9,517.9-517.9S804,0,517.9,0z
	 M665.5,821.7c-2.4,19.5-12.4,29.1-31,35.2c-36.5,11.8-71.3,29.7-106.8,26.7c-25.1,0.6-45.3-1.8-64.7-9.9
	c-40.4-16.9-61.4-51.7-58.6-95.6c2.5-38.7,13.2-75.6,23.7-112.7c10.7-37.8,22.3-75.4,31-113.8c4-17.7,5.9-35.4,3.8-53.4
	c-2.1-18.1-10.1-26.6-27.7-30.5c-22.1-4.9-43.3-1.2-64.3,5.9c-3.8,1.3-8.4,4.7-12,1.2c-3.5-3.4,0-8,0.3-12.1
	c1.3-19.6,11.9-29.5,30.6-35.4c35-11.3,69-25.8,106.4-26.9c21.5-0.6,42.7,1,62.9,9.2c38.6,15.7,59.7,47.4,58.8,88.9
	c-0.6,25.7-4,51-10.9,75.9c-14.4,51.9-30.9,103.2-42.6,155.8c-4.1,18.3-7.9,36.9-4.9,55.8c3,18.7,11.2,26.6,29.6,30.6
	c22.1,4.8,43.3,1,64.3-5.8C667.3,806.2,667.3,807.2,665.5,821.7z M673.4,266.1c-12.2,33.3-46.8,55.8-85.8,55.8
	c-63.1,0-106.3-56.2-86.2-112.2c16.4-45.7,71.9-69.6,120.1-51.8C666.5,174.5,689.4,222.3,673.4,266.1z"/>
</svg>
