<?xml version="1.0" encoding="utf-8"?>
<!-- Generator: Adobe Illustrator 26.1.0, SVG Export Plug-In . SVG Version: 6.00 Build 0)  -->
<svg version="1.1" id="Layer_1" xmlns="http://www.w3.org/2000/svg" xmlns:xlink="http://www.w3.org/1999/xlink" x="0px" y="0px"
	 viewBox="0 0 791.7 802.5" style="enable-background:new 0 0 791.7 802.5;" xml:space="preserve">
<style type="text/css">
	.st0{fill-rule:evenodd;clip-rule:evenodd;fill:#F2F2F2;}
</style>
<desc>Created with Sketch.</desc>
<g id="Icons">
	<g id="Rounded" transform="translate(-614.000000, -3124.000000)">
		<g id="Maps" transform="translate(100.000000, 3068.000000)">
			<g id="_x2D_Round-_x2F_-Maps-_x2F_-category" transform="translate(511.000000, 54.000000)">
				<g>
					<path id="_xD83D__xDD39_-Icon-Color" class="st0" d="M342.6,23c16.3-26.7,54.6-26.7,70.8,0L568,276.3
						c17.1,27.5-2.9,63.3-35.4,63.3H223c-32.5,0-52.5-35.8-35.4-63.3L342.6,23z M607.2,798c-103.6,0-187.5-83.9-187.5-187.5
						S503.6,423,607.2,423s187.5,83.9,187.5,187.5S710.7,798,607.2,798z M44.7,777.2C21.8,777.2,3,758.4,3,735.5v-250
						c0-22.9,18.8-41.7,41.7-41.7h250c22.9,0,41.7,18.8,41.7,41.7v250c0,22.9-18.8,41.7-41.7,41.7H44.7z"/>
				</g>
			</g>
		</g>
	</g>
</g>
</svg>
