<?xml version="1.0" encoding="utf-8"?>
<!-- Generator: Adobe Illustrator 26.1.0, SVG Export Plug-In . SVG Version: 6.00 Build 0)  -->
<svg version="1.1" id="Layer_1" xmlns="http://www.w3.org/2000/svg" xmlns:xlink="http://www.w3.org/1999/xlink" x="0px" y="0px"
	 viewBox="0 0 1035.9 950.4" style="enable-background:new 0 0 1035.9 950.4;" xml:space="preserve">
<style type="text/css">
	.st0{fill-rule:evenodd;clip-rule:evenodd;fill:#F2F2F2;}
	.st1{fill-rule:evenodd;clip-rule:evenodd;fill:#E5E5E5;}
</style>
<g id="Layer_x0020_1">
	<g id="_1133584256">
		<path class="st0" d="M880.8,241.9V84.2c0-10.8-10.8-21.6-21.6-21.6H755.5c-13,0-21.6,10.8-21.6,21.6v51.8L576.2,19.4
			c-36.7-25.9-82.1-25.9-116.6,2.2L16.8,367.2c-19.4,13-21.6,41-8.6,58.3c15.1,19.4,43.2,23.8,60.5,8.6L507.1,90.7
			c8.6-2.2,15.1-4.3,21.6,0l438.5,321.8c19.4,15.1,47.5,10.8,60.5-8.6c15.1-19.4,10.8-45.4-8.6-60.5L880.8,241.9z"/>
		<path class="st1" d="M880.8,241.9V84.2c0-10.8-10.8-21.6-21.6-21.6H755.5c-13,0-21.6,10.8-21.6,21.6v51.8L576.2,19.4
			C554.6,4.3,530.9-2.2,507.1,0v92.9v-2.2c8.6-2.2,15.1-4.3,21.6,0l438.5,321.8c19.4,15.1,47.5,10.8,60.5-8.6
			c15.1-19.4,10.8-45.4-8.6-60.5L880.8,241.9z"/>
		<path class="st0" d="M172.3,950.4h194.4v-324c0-23.8,19.4-43.2,43.2-43.2h194.4c23.8,0,43.2,19.4,43.2,43.2v324h216
			c36.7,0,64.8-28.1,64.8-64.8v-432L543.8,166.3c-6.5-4.3-15.1-6.5-25.9-6.5s-19.4,2.2-28.1,8.6L107.5,453.6v432
			C107.5,922.3,135.6,950.4,172.3,950.4z"/>
	</g>
</g>
</svg>
