<?xml version="1.0" encoding="utf-8"?>
<!-- Generator: Adobe Illustrator 26.1.0, SVG Export Plug-In . SVG Version: 6.00 Build 0)  -->
<svg version="1.1" id="Layer_1" xmlns="http://www.w3.org/2000/svg" xmlns:xlink="http://www.w3.org/1999/xlink" x="0px" y="0px"
	 viewBox="0 0 800 800" style="enable-background:new 0 0 800 800;" xml:space="preserve">
<style type="text/css">
	<!-- .st0{fill:#353535;} -->
	.st0{fill="currentColor";}
</style>
<g>
	<g id="account-circle">
		<path class="st0" d="M400,0C180,0,0,180,0,400s180,400,400,400s400-180,400-400S620,0,400,0z M400,120c68,0,120,52,120,120
			s-52,120-120,120s-120-52-120-120S332,120,400,120z M400,688c-100,0-188-52-240-128c0-80,160-124,240-124s240,44,240,124
			C588,636,500,688,400,688z"/>
	</g>
</g>
</svg>
