<?xml version="1.0" encoding="UTF-8"?><svg xmlns="http://www.w3.org/2000/svg" viewBox="0 0 717.91 635.36"><defs><style>.d{fill:#ff0052;}</style></defs><g id="a"/><g id="b"><g id="c"><g><path class="d" d="M662.16,324.95c0,3.1,.23,5.87-.03,8.6-5.53,56.75-20.52,110.59-49.49,160.1-26.31,44.96-63.43,78.27-109.78,101.6-32.03,16.12-65.83,26.96-100.98,33.73-15.13,2.91-30.36,5.15-45.76,6.02-1.05,.06-2.11,0-3.81,0,.38-5.01,.61-9.76,1.13-14.49,4.48-40.94,14.24-80.53,30.69-118.37,14.99-34.47,35-65.56,62.34-91.64,25.55-24.38,55.26-42.29,87.69-55.87,30.71-12.86,62.6-21.53,95.53-26.33,9.38-1.37,18.83-2.27,28.26-3.35,1.22-.14,2.48-.02,4.22-.02Z"/><path class="d" d="M312.47,635.36c-7.21-.64-13.87-1.02-20.48-1.85-31.75-3.96-62.74-11.14-92.8-22.21-33.42-12.31-64.36-29-91.71-52-27.47-23.09-48.4-51.29-64.62-83.12-17.45-34.25-28.76-70.54-35.24-108.34-2.13-12.4-3.27-24.98-4.8-37.48-.2-1.65-.03-3.34-.03-5.58,4.97,.36,9.57,.55,14.15,1.05,33.39,3.63,65.96,10.89,97.54,22.37,34.81,12.66,66.98,30,95.19,54.25,29.06,24.98,50.58,55.6,66.89,90.05,15.55,32.86,25.82,67.38,31.52,103.23,1.88,11.82,2.97,23.77,4.38,35.66,.13,1.05,.02,2.13,.02,3.97Z"/><path class="d" d="M338.93,439.46c-1.24-1.81-1.84-2.9-2.63-3.83-36.71-43.51-64.44-91.93-79.8-146.99-8.32-29.8-11.53-60.18-8.72-91.08,2.55-27.95,9.31-54.91,19.7-80.93,16.35-40.96,38.81-78.29,67.32-111.97,1.2-1.42,2.48-2.77,4.18-4.66,1.5,1.61,2.88,2.97,4.14,4.44,19.12,22.32,35.36,46.6,49.24,72.48,15.23,28.41,26.81,58.18,33.51,89.79,9.21,43.45,6.77,86.36-6.04,128.73-15.79,52.2-42.64,98.3-77.71,139.82-.89,1.05-1.67,2.19-3.19,4.2Z"/><path class="d" d="M717.91,193.8c-.74,.98-1.14,1.64-1.66,2.19-16.68,17.45-35.79,31.34-58.63,39.69-21.98,8.03-44.21,7.79-66.54,1.67-15.71-4.3-30.39-11.02-44.15-19.74-.92-.58-1.81-1.21-2.7-1.85-.38-.27-.7-.61-1.27-1.12,.33-.6,.57-1.33,1.04-1.83,17.62-18.58,37.94-33.12,62.46-41.22,20.61-6.81,41.35-6.23,62.1-.69,16.37,4.37,31.57,11.38,45.83,20.48,1.04,.66,2.03,1.4,3.49,2.42Z"/><path class="d" d="M587.52,148.81c-.19-2.29-.44-3.96-.45-5.63-.07-19.3,2.63-38.16,9.2-56.38,8.91-24.74,24.97-43.5,47.46-56.92,14.83-8.85,30.78-14.86,47.55-18.82,1.65-.39,3.34-.58,5.23-.9,.21,1.32,.49,2.36,.52,3.41,.56,21.08-2.49,41.57-10.11,61.32-9.55,24.74-26.48,42.94-49.4,55.83-15.44,8.69-31.88,14.63-50,18.1Z"/><path class="d" d="M529.25,204.01c-7.2-6.23-13.37-13.2-19.12-20.56-8.87-11.33-16.17-23.58-21.37-37.03-8.43-21.79-8.92-43.96-3.19-66.43,4.26-16.72,11.24-32.25,20.47-46.8,.82-1.29,1.76-2.51,2.65-3.77,.67,.22,1.21,.23,1.5,.51,19.73,18.53,34.99,39.98,42.73,66.21,5.99,20.29,4.87,40.56-.83,60.73-4.39,15.53-11.11,30-19.74,43.61-.58,.92-1.23,1.79-1.89,2.66-.17,.23-.49,.36-1.21,.87Z"/><path class="d" d="M138.34,246.73c-.99,.73-1.77,1.48-2.69,1.97-15.53,8.26-31.87,13.84-49.55,15.23-18.13,1.43-34.86-2.73-50.46-11.88-13.02-7.64-24.18-17.45-33.83-29.02-.59-.71-1.1-1.49-1.82-2.48,.61-.55,1.07-1.16,1.67-1.49,17.57-9.63,36.14-15.71,56.37-16.08,13.66-.25,26.53,2.79,38.69,8.89,15.68,7.87,28.73,19,39.92,32.41,.58,.7,1.04,1.5,1.69,2.45Z"/><path class="d" d="M30.88,71.98c3.96,1.27,7.24,2.2,10.43,3.36,16.72,6.07,31.94,14.62,44.52,27.41,12.41,12.6,19.39,27.97,22.88,45.12,2.44,11.99,2.8,24.07,2.08,36.23-.05,.93-.22,1.85-.39,2.77-.11,.59-.32,1.17-.56,2.04-1.14-.2-2.17-.29-3.15-.58-14.48-4.19-27.84-10.67-40.02-19.56-19.32-14.11-30.43-33.26-34.79-56.58-2.16-11.55-2.47-23.18-1.77-34.87,.09-1.51,.43-3,.78-5.34Z"/><path class="d" d="M176.26,100.85c.46,.64,.98,1.23,1.34,1.89,9.92,18.17,16.01,37.39,15.95,58.31-.04,16.18-5,30.88-13.38,44.54-7.05,11.51-15.88,21.5-26.06,30.32-.94,.81-1.92,1.58-2.91,2.34-.36,.28-.8,.47-1.26,.74-.36-.26-.87-.44-1.06-.8-10.87-19.53-17.34-40.21-16.41-62.82,.65-15.84,6.17-30.05,14.64-43.23,6.94-10.82,15.5-20.23,25.24-28.59,.83-.71,1.68-1.39,2.56-2.03,.36-.26,.8-.41,1.35-.67Z"/></g></g></g></svg>