<?xml version="1.0" encoding="UTF-8"?><svg xmlns="http://www.w3.org/2000/svg" viewBox="0 0 697.61 323.68"><defs><style>.d{fill:#444041;}</style></defs><g id="a"/><g id="b"><g id="c"><g><path class="d" d="M546.65,239.92c-1.09,10.23,4.98,18.21,11.93,20.8,4.46,1.66,8.95,2.41,13.66,2.24,4.51-.16,9.06,.15,13.53-.35,6.77-.76,13.48-2.03,20.21-3.11,2.44-.39,4.87-1.12,7.32-1.19,7.45-.22,14.97-.84,22.34-.1,10.95,1.09,19.2,7.1,25.15,16.37,5.22,8.15,5.69,17.15,5.31,26.42-.24,5.96-2,11.59-3.26,17.32-.86,3.89-2.82,5.2-6.98,5.29-1.71,.04-3.43-.09-5.14,.03-3.36,.25-5.81-.78-7.93-3.67-2.75-3.77-7.33-4.72-11.61-5.07-9.62-.78-19.28-.67-28.84,1.03-.77,.14-1.53,.33-2.3,.41-10.05,.96-20.09,1.91-30.14,2.84-2.01,.19-4.08,.07-6.05,.47-7.82,1.61-15.65,.45-23.16-1.07-12.13-2.45-21.86-9.28-28.24-20.12-5.86-9.94-8.27-20.89-6.49-32.23,1.82-11.63,6.43-22.26,14.87-30.88,1.61-1.65,3.09-3.42,5.06-5.61-1.16-1.31-2.17-2.84-3.53-3.91-6.57-5.17-11.51-11.69-15.47-18.92-3.43-6.27-5.51-12.99-6.23-20.22-.79-7.97-.6-15.91,.37-23.75,.98-7.84,3.95-15.17,8.08-22,7.25-12,17.81-19.84,30.53-25.32,6.85-2.95,13.84-4.97,21.12-6.56,16.67-3.65,33.51-3.24,50.15-1.62,15.85,1.54,31.43,5.51,44.64,15.47,1.49,1.12,2.9,2.34,4.36,3.51,3.12,2.5,4.33,2.47,7.15-.33,4.08-4.06,8.04-8.24,12.19-12.22,4.49-4.29,8.01-4.12,12.35,.38,1.18,1.22,2.3,2.51,3.42,3.78,3.56,4.02,3.49,8.02-.64,11.18-5.4,4.13-11.04,7.95-16.59,11.88-3.72,2.64-4.62,4.54-2.86,8.6,3.51,8.05,4.28,16.47,4.25,25.07-.01,3.58,.18,7.2-.31,10.73-.94,6.75-2.58,13.36-5.23,19.67-6.57,15.6-18.58,25.63-33.75,32.06-6.38,2.7-13.3,3.88-20.13,5.33-16.22,3.45-32.51,2.56-48.79,1.64-5.96-.34-11.82-2.24-17.74-3.36-2.08-.39-4.21-.57-6.59-.88Zm101.35-95.88c-1.54-.69-2.09-.95-2.66-1.19-13.84-5.89-27.75-.2-32.32,13.19-3.04,8.92-4.41,18.08-3.07,27.51,.28,2,.94,3.96,1.07,5.96,.32,4.97,2.09,9.44,4.99,13.31,1.7,2.27,4.04,4.38,6.55,5.66,5.26,2.69,11.08,2.86,16.86,2.05,5.59-.78,10.2-3.28,13.45-8.16,3.26-4.89,5.37-10.28,5.78-16,.52-7.28,.2-14.61,.13-21.92-.03-2.7-.82-5.2-3.37-7.14-2.66,1.82-5.26,3.76-8.01,5.43-2.55,1.55-5.06,.77-7.35-1.93-1.95-2.3-2.04-4.22-.04-6.61,1.79-2.13,3.85-4.04,5.64-6.17,.9-1.07,1.45-2.43,2.35-4Zm-31.66,72.37c-4.81-2.75-8.54-6.38-11.3-10.91-3.69-6.05-5.79-12.82-6.56-19.7-1.27-11.32-.93-22.68,4.2-33.26,2.93-6.03,6.62-11.56,12.34-15.39,.94-.63,1.97-1.15,3.36-1.95-2.24-1.56-4.01-1.23-5.77-.56-1.16,.44-2.26,1.03-3.41,1.51-13.22,5.51-20.33,16.14-22.6,29.57-1.57,9.25-1.37,18.76,1.77,28.11,3.9,11.59,11.31,19.3,22.59,23.49,1.62,.6,3.56,1.17,5.39-.9Zm34.69,94.05c2.84-2.56,2.96-2.56,3.11-5.53,.19-3.88,.22-7.77,.22-11.65,0-9.08-4.06-16.1-11.48-21.04-2.36-1.57-5.07-3.66-8.8-1.98,7.23,10.61,10.3,21.93,7.39,34.7,3.19,1.84,6.23,3.59,9.55,5.5Z"/><path class="d" d="M0,155.77c0-27.55,0-55.1,.01-82.65,0-4.34,.01-8.65,1.94-12.77,1.81-3.86,4.3-6.48,8.54-7.83,4.09-1.3,8.17-1.73,12.38-1.73,21.17,.02,42.34-.21,63.51,.12,8.84,.14,17.76,.87,26.46,2.35,8.65,1.47,16.93,4.37,25.03,8.14,8.44,3.93,15.31,9.3,20.68,16.63,6.59,8.98,9.9,19.23,10.35,30.35,.36,9.05-.02,18.06-2.43,26.86-4.53,16.56-13.44,29.66-29.27,37.53-6.16,3.06-12.44,5.44-19.17,6.74-2.58,.5-5.13,1.23-7.6,2.13-.83,.3-1.71,1.37-1.93,2.25-.36,1.48-.25,3.09-.25,4.64-.01,15.41,0,30.82-.02,46.23,0,5.12-.11,10.2-2.52,14.98-2.07,4.09-5.17,6.72-9.38,8.42-5.21,2.1-10.61,2.1-16.06,2.1-18.99,0-37.98-.07-56.97,.04-5.05,.03-9.96-.52-14.61-2.38-5.3-2.12-7.4-6.83-8.28-12.03-.51-3.04-.41-6.21-.41-9.32C0,209.63,0,182.7,0,155.77Zm148.93-38.61c-.12-6.84-.24-12-1.94-17.18-2.24-6.78-5.3-12.89-10.81-17.45-6.54-5.41-13.94-9.03-22.58-9.86-4.73-.46-5.21-.25-5.34,4.3-.02,.62,0,1.24,0,1.86,0,25.49,0,50.98,0,76.47,0,1.09-.05,2.18,.05,3.26,.25,2.81,1.11,3.71,3.87,3.18,3.47-.66,7-1.42,10.23-2.79,7.35-3.12,13.79-7.53,18.28-14.4,5.77-8.82,8.52-18.45,8.23-27.41Zm-64.04,41.73c0,27.37,0,54.74,0,82.11,0,1.55-.04,3.12,.16,4.66,.22,1.68,1.09,3.09,3.01,2.88,4.4-.49,8.16-1.87,8.59-7.32,.18-2.32,.17-4.66,.18-6.99,0-52.25,0-104.51,0-156.76,0-1.55,.19-3.17-.17-4.64-.26-1.05-1.08-2.32-2.01-2.78-5.76-2.88-9.72-.46-9.77,5.81,0,1.24,0,2.49,0,3.73,0,26.44,0,52.88,0,79.32Z"/><path class="d" d="M325,185.71c0-17.75-.02-35.49,.01-53.24,0-4.19,.19-8.3,2.08-12.28,2.45-5.18,6.58-7.6,11.9-8.52,1.22-.21,2.48-.18,3.73-.18,22.73-.01,45.45,.05,68.18-.07,4.54-.02,8.65,.96,12.22,3.67,2.02,1.53,3.5,1.08,5.44-.13,8.76-5.44,18.24-7.44,28.5-5.72,9.32,1.56,14.95,7.42,18.7,15.6,3.33,7.27,3.62,15.13,3.67,22.83,.24,34.09,.11,68.18,.11,102.27,0,.93,0,1.87-.11,2.8-.91,7.27-3.57,7.72-8.37,7.52-2.49-.1-4.99,.08-7.47-.1-3.57-.26-5.3-2.03-5.58-5.58-.16-2.01-.15-4.04-.15-6.07,0-33.47-.02-66.94,0-100.4,0-4.39-.43-8.64-1.84-12.86-2.85-8.51-10.14-9.04-16.16-7.37-1.58,.44-2.98,1.62-4.42,2.53-2.16,1.35-3.17,3.3-3.05,5.88,.07,1.4,0,2.8,0,4.2,0,31.13,.07,62.27-.07,93.4-.02,5.1-.54,10.29-1.65,15.25-1,4.5-3.86,7.68-8.77,9.24-4.88,1.55-9.73,1.86-14.7,1.86-19.61,.01-39.23-.06-58.84,.04-5.04,.03-9.9-.64-14.63-2.31-2.93-1.04-4.79-3.26-6.26-5.89-2.06-3.66-2.43-7.65-2.45-11.72-.03-8.25-.03-16.5-.03-24.75,0-9.96,0-19.93,0-29.89h0Zm83.54-62.32c-.12,1.87-.32,3.54-.33,5.2-.02,37.93-.02,75.86,0,113.79,0,1.24-.08,2.53,.21,3.71,.2,.8,.82,1.75,1.53,2.13,3.06,1.64,9.42-1.69,9.79-5.16,.29-2.77,.28-5.59,.28-8.38,.02-32.49,.01-64.98,0-97.47,0-1.71,0-3.42-.09-5.13-.32-6.58-4.02-9.61-11.39-8.69Z"/><path class="d" d="M189.59,185.21c0-17.43-.03-34.85,.02-52.28,.01-4.18,.08-8.3,1.85-12.33,2.47-5.63,6.86-8.11,12.55-8.97,.92-.14,1.86-.13,2.8-.13,24.58,0,49.17,0,73.75-.02,3.16,0,6.09,.5,8.89,2.21,3.26,1.99,5.29,4.7,6,8.38,1.15,5.97,1.6,11.97,1.58,18.07-.11,31.9,.02,63.79-.13,95.69-.02,4.77-.63,9.65-1.76,14.28-.96,3.93-3.35,6.92-7.84,8.32-4.27,1.33-8.48,1.78-12.83,1.78-20.54,.01-41.08-.06-61.61,.05-5.05,.03-9.94-.58-14.6-2.38-5.38-2.08-7.35-6.84-8.25-12.02-.5-2.89-.4-5.89-.41-8.85-.03-17.27-.02-34.54-.01-51.81Zm83.24,.05c0,19.3-.02,38.61,.01,57.91,.01,5.46,1.73,6.38,7.01,4.62,3.38-1.12,4.78-3.11,4.64-6.53-.08-2.02,.09-4.05,.09-6.07,0-33,0-66,0-99,0-2.33-.21-4.67-.12-7,.11-2.96-1.54-4.59-3.94-5.71-4.91-2.29-7.67-.57-7.68,4.81-.02,18.99,0,37.98,0,56.97Z"/><path class="d" d="M291.3,48.37c.73,25.67-22.36,47.94-47.86,47.76-26.64-.19-48.46-21.88-48.05-48.11C195.84,19.26,217.22-.04,243.54,0c27.35,.04,48,21.42,47.75,48.37ZM255.33,15.04c15.95,22.52,15.76,44.55-.5,66.8,8.14-.73,13.39-6.05,17.41-11.64,9.14-12.71,10.67-26.44,2.25-40.44-4.48-7.44-10.48-12.85-19.17-14.72Z"/></g></g></g></svg>