<?xml version="1.0" encoding="utf-8"?>
<!-- Generator: Adobe Illustrator 26.1.0, SVG Export Plug-In . SVG Version: 6.00 Build 0)  -->
<svg version="1.1" id="Layer_1" xmlns="http://www.w3.org/2000/svg" xmlns:xlink="http://www.w3.org/1999/xlink" x="0px" y="0px"
	 viewBox="0 0 1035.9 1035.9" style="enable-background:new 0 0 1035.9 1035.9;" xml:space="preserve">
<style type="text/css">
	.st0{fill:#F3F3F3;}
</style>
<g>
	<path id="XMLID_314_" class="st0" d="M968,507.2c0,49.7-40.3,90-90,90H158c-49.7,0-90-40.3-90-90s40.3-90,90-90h720
		C927.6,417.2,968,457.5,968,507.2z"/>
	<path id="XMLID_315_" class="st0" d="M968,147.2c0,49.7-40.3,90-90,90H158c-49.7,0-90-40.3-90-90s40.3-90,90-90h720
		C927.6,57.2,968,97.5,968,147.2z"/>
	<path id="XMLID_316_" class="st0" d="M968,867.2c0,49.7-40.3,90-90,90H158c-49.7,0-90-40.3-90-90c0-49.7,40.3-90,90-90h720
		C927.6,777.2,968,817.5,968,867.2z"/>
</g>
</svg>
