<?xml version="1.0" encoding="utf-8"?>
<!-- Generator: Adobe Illustrator 26.1.0, SVG Export Plug-In . SVG Version: 6.00 Build 0)  -->
<svg version="1.1" id="Layer_1" xmlns="http://www.w3.org/2000/svg" xmlns:xlink="http://www.w3.org/1999/xlink" x="0px" y="0px"
	 viewBox="0 0 800 800" style="enable-background:new 0 0 800 800;" xml:space="preserve">
<style type="text/css">
	.st0{fill-rule:evenodd;clip-rule:evenodd;fill:#353535;}
</style>
<g id="Search">
	<path class="st0" d="M780.4,685.9L606.6,512.1c-0.9-0.9-2-1.6-3-2.4c34.2-51.9,54.2-114,54.2-180.7C657.8,147.3,510.6,0,328.9,0
		S0,147.3,0,328.9c0,181.6,147.3,328.9,328.9,328.9c66.8,0,128.9-20,180.7-54.2c0.9,1,1.5,2,2.4,3l173.8,173.8
		c26.1,26.1,68.4,26.1,94.5,0C806.5,754.4,806.5,712,780.4,685.9z M328.9,543.8c-118.7,0-214.9-96.2-214.9-214.9
		c0-118.7,96.2-214.9,214.9-214.9c118.7,0,214.9,96.2,214.9,214.9S447.6,543.8,328.9,543.8z"/>
</g>
</svg>
