<?xml version="1.0" encoding="utf-8"?>
<!-- Generator: Adobe Illustrator 26.1.0, SVG Export Plug-In . SVG Version: 6.00 Build 0)  -->
<svg version="1.1" id="Layer_1" xmlns="http://www.w3.org/2000/svg" xmlns:xlink="http://www.w3.org/1999/xlink" x="0px" y="0px"
	 viewBox="0 0 999.6 855.9" style="enable-background:new 0 0 999.6 855.9;" xml:space="preserve">
<style type="text/css">
	.st0{fill:#353535;}
</style>
<path class="st0" d="M991.2,96.6c-5-8.3-15-13.3-25-13.3h-813C133.3,33.3,86.6,0,33.3,0C15,0,0,15,0,33.3s15,33.3,33.3,33.3
	c31.7,0,58.3,23.3,61.6,55L183.3,673c3.3,16.7,16.7,28.3,33.3,28.3h41.6c-1.7,5-3.3,10-5,15c0,1.7,0,3.3-1.7,5c0,3.3-1.7,6.7-1.7,10
	l0,0c0,1.7,0,3.3,0,6.7v5c0,6.7,1.7,15,3.3,21.7c0,3.3,1.7,6.7,3.3,10c3.3,10,8.3,18.3,13.3,28.3c3.3,5,8.3,10,13.3,15
	c1.7,1.7,5,5,8.3,6.7c3.3,1.7,5,3.3,8.3,6.7c3.3,1.7,6.7,3.3,8.3,5c15,8.3,33.3,13.3,50,13.3c60,0,108.3-48.3,108.3-108.3
	c0-3.3,0-6.7,0-11.7c0-3.3,0-5-1.7-8.3c0-1.7,0-3.3-1.7-5c-1.7-5-3.3-10-5-15h166.6c-13.3,31.7-10,65,5,93.3l0,0
	c1.7,3.3,3.3,5,5,8.3c1.7,1.7,3.3,5,5,6.7c1.7,1.7,3.3,3.3,5,5c1.7,1.7,3.3,3.3,3.3,3.3c3.3,3.3,8.3,6.7,11.7,10
	c1.7,1.7,5,3.3,6.7,5c1.7,1.7,5,3.3,6.7,3.3c15,8.3,31.7,11.7,50,11.7c1.7,0,5,0,6.7,0c3.3,0,5,0,8.3,0c36.7-5,70-30,85-65
	c5-10,6.7-20,8.3-30c0-3.3,0-6.7,0-11.7c0-6.7,0-15-1.7-21.7c-1.7-6.7-3.3-13.3-6.7-20h43.3c18.3,0,33.3-15,33.3-33.3
	c0-18.3-15-33.3-33.3-33.3H244.9l-8.3-50H883c16.7,0,30-11.7,33.3-26.7l83.3-433.1C1001.2,113.3,997.9,103.3,991.2,96.6z
	 M724.7,701.4c23.3,0,41.6,18.3,41.6,41.6c0,23.3-18.3,41.6-41.6,41.6c-23.3,0-41.6-18.3-41.6-41.6
	C683,719.7,701.4,701.4,724.7,701.4z M358.2,699.7c23.3,0,41.6,18.3,41.6,41.6c0,23.3-18.3,41.6-41.6,41.6s-41.6-18.3-41.6-41.6
	C316.5,718,334.9,699.7,358.2,699.7z"/>
</svg>
