<?xml version="1.0" encoding="UTF-8"?><svg id="a" xmlns="http://www.w3.org/2000/svg" viewBox="0 0 1022.47 88.71"><defs><style>.b{fill:#2d3874;}.c{fill:#37498e;}.d{fill:#222750;}.e{fill:#2b3974;}.f{fill:#4956a3;}.g{fill:#242951;}.h{fill:#25284d;}.i{fill:#171629;}.j{fill:#39498e;}.k{stroke-linejoin:round;}.k,.l{fill:none;stroke:#284280;stroke-width:2px;}.m{fill:#284280;}.l{stroke-miterlimit:10;}</style></defs><path class="m" d="M619.27,47.77l-6,2.88,6,2.88H0v-17.21H619.12l-5.85,2.81,6,2.88-6,2.88,6,2.88Z"/><g><polygon class="m" points="890.35 36.32 889.63 53.53 745.93 53.53 751.93 50.65 745.93 47.77 751.93 44.89 745.93 42.01 751.93 39.13 746.09 36.32 890.35 36.32"/><g><path class="d" d="M917.98,26.07V63.3h-18.71c-5.12,0-9.28-4.16-9.28-9.29v-18.66c0-3.12,1.55-5.89,3.92-7.57-.17,1.34-.26,2.72-.26,4.11,0,13.66,8.66,25.3,20.79,29.74V26.07h3.54Z"/><path class="b" d="M954.28,82.31h-25.25c-6.1,0-11.05-4.95-11.05-11.05v-23.74c7.4,15.6,20.35,28.05,36.3,34.79Z"/><rect class="c" x="975.04" y=".63" width="10.56" height="88.08" rx="2.16" ry="2.16"/><path class="h" d="M1022.47,26.66c0,1.86-.75,3.54-1.97,4.76-1.22,1.22-2.9,1.97-4.76,1.97h-26.54v-13.46h26.54c3.72,0,6.73,3.02,6.73,6.73Z"/><rect class="i" x="985.6" y="55.95" width="3.6" height="13.46"/><path class="g" d="M1022.47,62.68c0,3.71-3.01,6.72-6.73,6.72h-26.54v-13.45h26.54c1.86,0,3.54,.75,4.76,1.97,1.22,1.22,1.97,2.9,1.97,4.76Z"/><path class="j" d="M971.44,68.44v13.87h-17.16c-15.95-6.74-28.9-19.19-36.3-34.79V18.11c0-6.1,4.95-11.05,11.05-11.05h.95c1.13,27.35,17.82,50.68,41.46,61.38Z"/><path class="f" d="M971.44,7.06v61.38c-23.64-10.7-40.33-34.03-41.46-61.38h41.46Z"/><path class="e" d="M914.44,26.07V61.63c-12.13-4.44-20.79-16.08-20.79-29.74,0-1.39,.09-2.77,.26-4.11,1.51-1.08,3.36-1.71,5.36-1.71h15.17Z"/><rect class="d" x="971.44" y="7.06" width="3.6" height="75.25"/><rect class="i" x="985.6" y="19.93" width="3.6" height="13.46"/></g></g><circle class="l" cx="696.89" cy="47.16" r="4.77"/><circle class="l" cx="638.56" cy="73.95" r="4.77"/><g><path class="k" d="M637.18,4.86v6.75"/><path class="k" d="M628.81,13.23h6.75"/><path class="k" d="M637.18,21.6v-6.75"/><path class="k" d="M645.55,13.23h-6.75"/></g><g><path class="l" d="M733.18,61.63v6.75"/><path class="l" d="M724.81,70h6.75"/><path class="l" d="M733.18,78.37v-6.75"/><path class="l" d="M741.55,70h-6.75"/></g><path class="m" d="M725.44,13.41c-.33,.73-.93,1.81-1.98,2.88-1.11,1.13-2.25,1.76-3,2.1,.78,.34,2.06,1.03,3.24,2.34,.87,.97,1.38,1.94,1.68,2.64,.3-.7,.93-1.9,2.16-3,1.06-.95,2.14-1.43,2.82-1.68-.76-.39-1.91-1.08-3-2.28-1.02-1.12-1.6-2.24-1.92-3Z"/><path class="m" d="M651.34,31.88c-.33,.73-.93,1.81-1.98,2.88-1.11,1.13-2.25,1.76-3,2.1,.78,.34,2.06,1.03,3.24,2.34,.87,.97,1.38,1.94,1.68,2.64,.3-.7,.93-1.9,2.16-3,1.06-.95,2.14-1.43,2.82-1.68-.76-.39-1.91-1.08-3-2.28-1.02-1.12-1.6-2.24-1.92-3Z"/></svg>