<?xml version="1.0" encoding="utf-8"?>
<!-- Generator: Adobe Illustrator 25.4.1, SVG Export Plug-In . SVG Version: 6.00 Build 0)  -->
<svg version="1.1" xmlns="http://www.w3.org/2000/svg" xmlns:xlink="http://www.w3.org/1999/xlink" x="0px" y="0px"
	 viewBox="0 0 500 500" style="enable-background:new 0 0 500 500;" xml:space="preserve">
<style type="text/css">
	.st0{fill:transparent;}
	.st1{fill:#F5DF60;}
	.st2{fill:none;stroke:#000000;stroke-width:2.1628;stroke-linecap:round;stroke-linejoin:round;stroke-miterlimit:10;}
	.st3{fill:none;stroke:#000000;stroke-width:3.2675;stroke-miterlimit:10;}
	.st4{fill:none;stroke:#000000;stroke-width:2.4187;stroke-linecap:round;stroke-linejoin:round;stroke-miterlimit:10;}
	.st5{fill:none;stroke:#000000;stroke-width:2.2614;stroke-linecap:round;stroke-linejoin:round;stroke-miterlimit:10;}

		.st6{fill:none;stroke:#000000;stroke-width:2.1628;stroke-linecap:round;stroke-linejoin:round;stroke-miterlimit:10;stroke-dasharray:3.2675,7.6242;}

		.st7{fill:none;stroke:#000000;stroke-width:2.0166;stroke-linecap:round;stroke-linejoin:round;stroke-miterlimit:10;stroke-dasharray:3.0467,7.1089;}
</style>
<g id="BACKGROUND">
	<rect class="st0" width="500" height="500"/>
</g>
<g id="OBJECTS_copia">
	<g>
		<path class="st1" d="M195.83,287.64h-13.11v23.05h-31.76v-23.05h-47.48v-23.62l49.52-72.4h29.73v71.99h13.11V287.64z
			 M150.95,263.61v-13.85c0-2.61,0.09-6.12,0.29-10.55c0.19-4.42,0.34-6.75,0.45-6.96h-0.9c-1.85,4.18-3.94,8.09-6.27,11.73
			l-13.19,19.63H150.95z"/>
		<path class="st1" d="M290.22,251.31c0,21.07-3.53,36.5-10.59,46.3c-7.06,9.8-17.86,14.7-32.41,14.7
			c-14.23,0-24.95-5.12-32.17-15.35c-7.22-10.23-10.83-25.45-10.83-45.65c0-21.18,3.53-36.7,10.59-46.59
			c7.06-9.88,17.86-14.82,32.41-14.82c14.17,0,24.88,5.14,32.13,15.43C286.6,215.63,290.22,230.95,290.22,251.31z M236.22,251.31
			c0,13.47,0.84,22.72,2.53,27.77c1.68,5.05,4.51,7.57,8.47,7.57c4.02,0,6.85-2.61,8.51-7.82c1.66-5.21,2.48-14.39,2.48-27.53
			c0-13.19-0.84-22.44-2.52-27.73c-1.68-5.29-4.51-7.94-8.47-7.94c-3.96,0-6.79,2.55-8.47,7.66
			C237.07,228.4,236.22,237.74,236.22,251.31z"/>
		<path class="st1" d="M391.29,287.64h-13.11v23.05h-31.76v-23.05h-47.48v-23.62l49.52-72.4h29.73v71.99h13.11V287.64z
			 M346.42,263.61v-13.85c0-2.61,0.09-6.12,0.29-10.55c0.19-4.42,0.34-6.75,0.45-6.96h-0.9c-1.85,4.18-3.94,8.09-6.27,11.73
			l-13.19,19.63H346.42z"/>
	</g>
	<g>
		<line class="st2" x1="55.75" y1="218.04" x2="103.89" y2="218.04"/>
		<line class="st2" x1="115.44" y1="218.04" x2="125.72" y2="218.04"/>
		<line class="st2" x1="47.03" y1="204.49" x2="133.21" y2="204.49"/>
		<line class="st2" x1="39.94" y1="204.49" x2="32.85" y2="204.49"/>
		<line class="st2" x1="47.03" y1="191.62" x2="75.64" y2="191.62"/>
		<line class="st2" x1="83.3" y1="191.62" x2="143.39" y2="191.62"/>
	</g>
	<g>
		<line class="st2" x1="396.01" y1="325.52" x2="447.52" y2="325.52"/>
		<line class="st2" x1="455.9" y1="325.52" x2="463.35" y2="325.52"/>
		<line class="st2" x1="406.3" y1="311.98" x2="473.8" y2="311.98"/>
		<line class="st2" x1="401.15" y1="311.98" x2="396.01" y2="311.98"/>
		<line class="st2" x1="396.01" y1="299.1" x2="427.04" y2="299.1"/>
		<line class="st2" x1="432.6" y1="299.1" x2="455.9" y2="299.1"/>
	</g>
	<g>
		<path class="st3" d="M201.99,287.18h-13.11v23.05h-31.76v-23.05h-47.48v-23.62l49.52-72.4h29.73v71.99h13.11V287.18z
			 M157.12,263.16v-13.85c0-2.61,0.09-6.12,0.29-10.55c0.19-4.42,0.34-6.75,0.45-6.96h-0.9c-1.85,4.18-3.94,8.09-6.27,11.73
			l-13.19,19.63H157.12z"/>
		<path class="st3" d="M296.38,250.86c0,21.07-3.53,36.5-10.59,46.3c-7.06,9.8-17.86,14.7-32.41,14.7
			c-14.23,0-24.95-5.12-32.17-15.35c-7.22-10.23-10.83-25.45-10.83-45.65c0-21.17,3.53-36.7,10.59-46.59
			c7.06-9.88,17.86-14.82,32.41-14.82c14.17,0,24.88,5.14,32.13,15.43C292.76,215.17,296.38,230.5,296.38,250.86z M242.39,250.86
			c0,13.47,0.84,22.72,2.53,27.77c1.68,5.05,4.51,7.57,8.47,7.57c4.02,0,6.85-2.61,8.51-7.82c1.66-5.21,2.48-14.39,2.48-27.53
			c0-13.19-0.84-22.44-2.52-27.73c-1.68-5.29-4.51-7.94-8.47-7.94c-3.96,0-6.79,2.55-8.47,7.66
			C243.23,227.95,242.39,237.29,242.39,250.86z"/>
		<path class="st3" d="M397.45,287.18h-13.11v23.05h-31.76v-23.05H305.1v-23.62l49.52-72.4h29.73v71.99h13.11V287.18z
			 M352.58,263.16v-13.85c0-2.61,0.09-6.12,0.29-10.55c0.19-4.42,0.34-6.75,0.45-6.96h-0.9c-1.85,4.18-3.94,8.09-6.27,11.73
			l-13.19,19.63H352.58z"/>
	</g>
	<g>
		<path d="M193.98,336h4.98v26.4h-4.98V336z M195.77,336h15.89v4.79h-15.89V336z M195.77,346.89h13.89v4.79h-13.89V346.89z
			 M195.77,357.61h15.89v4.79h-15.89V357.61z"/>
		<path d="M216.2,335.98h4.98v26.42h-4.98V335.98z M218.18,346.99h9.19c0.51,0,0.96-0.13,1.34-0.38c0.39-0.25,0.69-0.62,0.9-1.09
			c0.21-0.47,0.32-1.02,0.34-1.63c0-0.62-0.11-1.16-0.32-1.63s-0.51-0.83-0.9-1.09c-0.39-0.25-0.84-0.38-1.36-0.38h-9.19v-4.79h9.59
			c1.45,0,2.73,0.33,3.83,0.98c1.1,0.65,1.95,1.58,2.56,2.77s0.91,2.58,0.91,4.15c0,1.57-0.3,2.96-0.91,4.15s-1.46,2.12-2.57,2.77
			c-1.11,0.65-2.38,0.98-3.82,0.98h-9.59V346.99z M223.74,350.96l5.32-0.84l7.12,12.27h-6.03L223.74,350.96z"/>
		<path d="M240.44,335.98h4.98v26.42h-4.98V335.98z M242.42,346.99h9.19c0.51,0,0.96-0.13,1.34-0.38c0.39-0.25,0.69-0.62,0.9-1.09
			c0.21-0.47,0.32-1.02,0.34-1.63c0-0.62-0.11-1.16-0.32-1.63s-0.51-0.83-0.9-1.09c-0.39-0.25-0.84-0.38-1.36-0.38h-9.19v-4.79h9.59
			c1.45,0,2.73,0.33,3.83,0.98c1.1,0.65,1.95,1.58,2.56,2.77s0.91,2.58,0.91,4.15c0,1.57-0.3,2.96-0.91,4.15s-1.46,2.12-2.57,2.77
			c-1.11,0.65-2.38,0.98-3.82,0.98h-9.59V346.99z M247.98,350.96l5.32-0.84l7.12,12.27h-6.03L247.98,350.96z"/>
		<path d="M267.99,361.46c-1.46-0.8-2.59-1.94-3.39-3.41s-1.2-3.17-1.2-5.11v-7.48c0-1.94,0.4-3.64,1.2-5.11s1.93-2.61,3.39-3.41
			c1.46-0.81,3.14-1.21,5.06-1.21c1.91,0,3.6,0.4,5.06,1.21c1.46,0.8,2.59,1.94,3.39,3.41s1.2,3.17,1.2,5.11v7.48
			c0,1.94-0.4,3.64-1.2,5.11s-1.93,2.61-3.39,3.41c-1.46,0.81-3.14,1.21-5.06,1.21C271.14,362.67,269.45,362.27,267.99,361.46z
			 M275.41,357.13c0.68-0.38,1.2-0.92,1.57-1.62s0.55-1.51,0.55-2.43v-7.73c0-0.92-0.18-1.73-0.55-2.43
			c-0.37-0.7-0.89-1.24-1.57-1.62c-0.68-0.38-1.46-0.57-2.36-0.57c-0.9,0-1.68,0.19-2.36,0.57c-0.68,0.38-1.2,0.92-1.57,1.62
			c-0.37,0.7-0.55,1.51-0.55,2.43v7.73c0,0.92,0.18,1.73,0.55,2.43s0.89,1.24,1.57,1.62c0.68,0.38,1.46,0.57,2.36,0.57
			C273.95,357.7,274.73,357.51,275.41,357.13z"/>
		<path d="M287.59,335.98h4.97v26.42h-4.97V335.98z M289.57,346.99h9.19c0.51,0,0.96-0.13,1.34-0.38c0.39-0.25,0.69-0.62,0.9-1.09
			c0.21-0.47,0.32-1.02,0.34-1.63c0-0.62-0.11-1.16-0.32-1.63s-0.51-0.83-0.9-1.09c-0.39-0.25-0.84-0.38-1.36-0.38h-9.19v-4.79h9.59
			c1.45,0,2.73,0.33,3.83,0.98c1.1,0.65,1.96,1.58,2.56,2.77s0.91,2.58,0.91,4.15c0,1.57-0.3,2.96-0.91,4.15s-1.46,2.12-2.57,2.77
			c-1.11,0.65-2.38,0.98-3.82,0.98h-9.59V346.99z M295.13,350.96l5.32-0.84l7.12,12.27h-6.03L295.13,350.96z"/>
	</g>
	<g>
		<line class="st2" x1="418.49" y1="215.1" x2="418.49" y2="204.06"/>
		<line class="st2" x1="410.78" y1="218.29" x2="402.98" y2="210.49"/>
		<line class="st2" x1="407.59" y1="226" x2="396.55" y2="226"/>
		<line class="st2" x1="410.78" y1="233.7" x2="402.98" y2="241.51"/>
		<line class="st2" x1="418.49" y1="236.9" x2="418.49" y2="247.93"/>
		<line class="st2" x1="426.2" y1="233.7" x2="434" y2="241.51"/>
		<line class="st2" x1="429.39" y1="226" x2="440.43" y2="226"/>
		<line class="st2" x1="426.2" y1="218.29" x2="434" y2="210.49"/>
	</g>
	<g>
		<line class="st2" x1="72.26" y1="270.07" x2="72.26" y2="262.09"/>
		<line class="st2" x1="66.69" y1="272.37" x2="61.05" y2="266.73"/>
		<line class="st2" x1="64.38" y1="277.94" x2="56.4" y2="277.94"/>
		<line class="st2" x1="66.69" y1="283.51" x2="61.05" y2="289.16"/>
		<line class="st2" x1="72.26" y1="285.82" x2="72.26" y2="293.8"/>
		<line class="st2" x1="77.83" y1="283.51" x2="83.47" y2="289.16"/>
		<line class="st2" x1="80.14" y1="277.94" x2="88.12" y2="277.94"/>
		<line class="st2" x1="77.83" y1="272.37" x2="83.47" y2="266.73"/>
	</g>
	<g>
		<line class="st2" x1="288.18" y1="105.25" x2="288.18" y2="97.27"/>
		<line class="st2" x1="282.61" y1="107.56" x2="276.97" y2="101.92"/>
		<line class="st2" x1="280.31" y1="113.13" x2="272.33" y2="113.13"/>
		<line class="st2" x1="282.61" y1="118.7" x2="276.97" y2="124.34"/>
		<line class="st2" x1="288.18" y1="121.01" x2="288.18" y2="128.99"/>
		<line class="st2" x1="293.75" y1="118.7" x2="299.39" y2="124.34"/>
		<line class="st2" x1="296.06" y1="113.13" x2="304.04" y2="113.13"/>
		<line class="st2" x1="293.75" y1="107.56" x2="299.39" y2="101.92"/>
	</g>
	<rect x="111.87" y="326.89" class="st4" width="273.76" height="43.1"/>
	<g>
		<path d="M161.38,386.27h5.53v1.03h-5.53V386.27z M163.59,386.93h1.09v8.62h-1.09V386.93z"/>
		<path d="M167.7,386.27h1.09v9.28h-1.09V386.27z M171.3,391.22c0-0.45-0.11-0.79-0.33-1.03c-0.22-0.24-0.53-0.35-0.94-0.35
			c-0.4,0-0.71,0.11-0.92,0.33c-0.21,0.22-0.32,0.55-0.32,0.99l-0.13-1.15c0.18-0.4,0.42-0.7,0.73-0.9s0.67-0.3,1.08-0.3
			c0.62,0,1.09,0.2,1.42,0.6c0.33,0.4,0.49,0.97,0.49,1.72v4.42h-1.09V391.22z"/>
		<path d="M175.05,395.34c-0.37-0.2-0.65-0.5-0.84-0.88c-0.19-0.38-0.29-0.85-0.29-1.39v-1.53c0-0.57,0.09-1.06,0.28-1.46
			c0.19-0.4,0.46-0.71,0.81-0.92c0.36-0.21,0.78-0.32,1.29-0.32c0.48,0,0.9,0.11,1.24,0.32c0.34,0.21,0.61,0.52,0.79,0.92
			c0.18,0.41,0.27,0.89,0.27,1.46v1.15h-3.94v-0.93h2.9v-0.38c0-0.49-0.11-0.88-0.33-1.15s-0.53-0.41-0.93-0.41
			c-0.43,0-0.76,0.14-0.99,0.43c-0.23,0.29-0.35,0.69-0.35,1.21v1.63c0,0.49,0.13,0.86,0.38,1.13c0.25,0.27,0.6,0.4,1.05,0.4
			c0.29,0,0.53-0.07,0.73-0.21s0.33-0.34,0.41-0.6l1,0.32c-0.12,0.5-0.36,0.88-0.73,1.13c-0.37,0.26-0.84,0.39-1.41,0.39
			C175.86,395.65,175.42,395.54,175.05,395.34z"/>
		<path d="M183.21,388.93h1.09v6.62h-1.09V388.93z M186.35,389.91c-0.11-0.04-0.23-0.05-0.37-0.05c-0.52,0-0.93,0.13-1.22,0.4
			c-0.29,0.26-0.44,0.63-0.45,1.11l-0.13-1.28c0.22-0.4,0.51-0.71,0.88-0.93c0.36-0.22,0.76-0.33,1.2-0.33
			c0.15,0,0.28,0.02,0.41,0.07s0.23,0.11,0.32,0.2l-0.36,1C186.54,390,186.45,389.95,186.35,389.91z"/>
		<path d="M188.89,395.34c-0.37-0.2-0.65-0.5-0.84-0.88c-0.19-0.38-0.29-0.85-0.29-1.39v-1.53c0-0.57,0.09-1.06,0.28-1.46
			c0.19-0.4,0.46-0.71,0.81-0.92c0.36-0.21,0.78-0.32,1.29-0.32c0.48,0,0.9,0.11,1.24,0.32c0.34,0.21,0.61,0.52,0.79,0.92
			c0.18,0.41,0.27,0.89,0.27,1.46v1.15h-3.94v-0.93h2.9v-0.38c0-0.49-0.11-0.88-0.33-1.15s-0.53-0.41-0.93-0.41
			c-0.43,0-0.76,0.14-0.99,0.43c-0.23,0.29-0.35,0.69-0.35,1.21v1.63c0,0.49,0.13,0.86,0.38,1.13c0.25,0.27,0.6,0.4,1.05,0.4
			c0.29,0,0.53-0.07,0.73-0.21s0.33-0.34,0.41-0.6l1,0.32c-0.12,0.5-0.36,0.88-0.73,1.13c-0.37,0.26-0.84,0.39-1.41,0.39
			C189.7,395.65,189.25,395.54,188.89,395.34z"/>
		<path d="M194.71,395.38c-0.29-0.18-0.51-0.45-0.66-0.8c-0.15-0.35-0.23-0.77-0.23-1.26v-2.12c0-0.51,0.07-0.94,0.22-1.29
			s0.36-0.63,0.65-0.81c0.28-0.19,0.62-0.28,1.02-0.28c0.38,0,0.72,0.1,1.03,0.3c0.31,0.2,0.55,0.49,0.74,0.87l-0.13,1.12
			c0-0.26-0.05-0.49-0.14-0.69c-0.09-0.2-0.23-0.36-0.42-0.47c-0.18-0.11-0.4-0.17-0.65-0.17c-0.39,0-0.69,0.12-0.91,0.38
			c-0.21,0.25-0.32,0.6-0.32,1.06v2.09c0,0.43,0.11,0.77,0.32,1.01c0.21,0.24,0.52,0.36,0.91,0.36c0.26,0,0.47-0.06,0.65-0.17
			c0.18-0.11,0.32-0.27,0.41-0.47c0.09-0.2,0.14-0.43,0.14-0.69l0.09,1.15c-0.13,0.37-0.34,0.65-0.63,0.85s-0.64,0.3-1.06,0.3
			C195.34,395.66,195,395.57,194.71,395.38z M197.35,388.93h1.09v9.32h-1.09V388.93z"/>
		<path d="M201.22,393.36c0,0.4,0.11,0.71,0.32,0.93c0.21,0.22,0.51,0.33,0.91,0.33c0.4,0,0.7-0.1,0.9-0.31s0.31-0.5,0.31-0.88
			l0.09,1.11c-0.14,0.34-0.35,0.62-0.63,0.81c-0.28,0.2-0.64,0.3-1.06,0.3c-0.62,0-1.09-0.2-1.42-0.59s-0.5-0.95-0.5-1.68v-4.45
			h1.08V393.36z M203.65,388.93h1.08v6.62h-1.08V388.93z"/>
		<path d="M207.39,395.34c-0.37-0.2-0.65-0.5-0.84-0.88c-0.19-0.38-0.29-0.85-0.29-1.39v-1.53c0-0.57,0.09-1.06,0.28-1.46
			c0.19-0.4,0.46-0.71,0.81-0.92c0.36-0.21,0.78-0.32,1.29-0.32c0.48,0,0.9,0.11,1.24,0.32c0.34,0.21,0.61,0.52,0.79,0.92
			c0.18,0.41,0.27,0.89,0.27,1.46v1.15H207v-0.93h2.9v-0.38c0-0.49-0.11-0.88-0.33-1.15s-0.53-0.41-0.93-0.41
			c-0.43,0-0.76,0.14-0.99,0.43c-0.23,0.29-0.35,0.69-0.35,1.21v1.63c0,0.49,0.13,0.86,0.38,1.13c0.25,0.27,0.6,0.4,1.05,0.4
			c0.29,0,0.53-0.07,0.73-0.21s0.33-0.34,0.41-0.6l1,0.32c-0.12,0.5-0.36,0.88-0.73,1.13c-0.37,0.26-0.84,0.39-1.41,0.39
			C208.2,395.65,207.76,395.54,207.39,395.34z"/>
		<path d="M213.26,395.48c-0.33-0.11-0.59-0.28-0.81-0.51c-0.21-0.23-0.37-0.52-0.48-0.86l0.93-0.42c0.15,0.33,0.35,0.58,0.6,0.75
			s0.54,0.25,0.87,0.25c0.45,0,0.79-0.09,1.03-0.27c0.24-0.18,0.36-0.44,0.36-0.78c0-0.23-0.06-0.41-0.19-0.53
			c-0.12-0.12-0.28-0.21-0.46-0.27c-0.19-0.06-0.44-0.11-0.77-0.16c-0.02,0-0.04-0.01-0.07-0.01c-0.03,0-0.06-0.01-0.1-0.02
			c-0.01,0-0.02-0.01-0.03-0.01s-0.03,0-0.04-0.01c-0.39-0.07-0.71-0.16-0.98-0.26c-0.27-0.11-0.49-0.29-0.67-0.54
			c-0.18-0.25-0.27-0.59-0.27-1.02c0-0.44,0.09-0.8,0.26-1.09c0.17-0.29,0.43-0.51,0.76-0.67c0.33-0.15,0.74-0.23,1.23-0.23
			c0.38,0,0.71,0.05,1.01,0.15c0.29,0.1,0.54,0.25,0.74,0.45c0.2,0.2,0.35,0.46,0.46,0.77l-0.95,0.42c-0.13-0.28-0.3-0.49-0.52-0.63
			c-0.21-0.14-0.46-0.21-0.75-0.21c-0.4,0-0.7,0.08-0.9,0.25c-0.21,0.17-0.31,0.42-0.31,0.76c0,0.22,0.06,0.38,0.18,0.5
			s0.28,0.2,0.47,0.26c0.19,0.05,0.46,0.11,0.79,0.16c0,0,0.01,0,0.02,0s0.02,0,0.02,0c0.01,0,0.02,0.01,0.03,0.01s0.02,0,0.03,0
			c0.41,0.07,0.76,0.16,1.04,0.26c0.28,0.1,0.52,0.29,0.71,0.55c0.19,0.27,0.28,0.63,0.28,1.11c0,0.43-0.09,0.79-0.28,1.09
			c-0.19,0.3-0.46,0.53-0.82,0.68s-0.8,0.23-1.32,0.23C213.96,395.65,213.59,395.59,213.26,395.48z"/>
		<path d="M217.72,388.93h2.92v1h-2.92V388.93z M218.77,395.14c-0.25-0.29-0.38-0.73-0.38-1.31V387h1.09v6.84
			c0,0.23,0.05,0.41,0.15,0.53s0.25,0.18,0.44,0.18h0.56v1.03h-0.69C219.42,395.58,219.02,395.43,218.77,395.14z"/>
		<path d="M223.05,395.34c-0.37-0.2-0.65-0.5-0.84-0.88c-0.19-0.38-0.29-0.85-0.29-1.39v-1.53c0-0.57,0.09-1.06,0.28-1.46
			c0.19-0.4,0.46-0.71,0.81-0.92c0.36-0.21,0.78-0.32,1.29-0.32c0.48,0,0.9,0.11,1.24,0.32c0.34,0.21,0.61,0.52,0.79,0.92
			c0.18,0.41,0.27,0.89,0.27,1.46v1.15h-3.94v-0.93h2.9v-0.38c0-0.49-0.11-0.88-0.33-1.15s-0.53-0.41-0.93-0.41
			c-0.43,0-0.76,0.14-0.99,0.43c-0.23,0.29-0.35,0.69-0.35,1.21v1.63c0,0.49,0.13,0.86,0.38,1.13c0.25,0.27,0.6,0.4,1.05,0.4
			c0.29,0,0.53-0.07,0.73-0.21s0.33-0.34,0.41-0.6l1,0.32c-0.12,0.5-0.36,0.88-0.73,1.13c-0.37,0.26-0.84,0.39-1.41,0.39
			C223.86,395.65,223.41,395.54,223.05,395.34z"/>
		<path d="M228.87,395.38c-0.29-0.18-0.51-0.45-0.66-0.8c-0.15-0.35-0.23-0.77-0.23-1.26v-2.12c0-0.51,0.07-0.94,0.22-1.29
			s0.36-0.63,0.65-0.81c0.28-0.19,0.62-0.28,1.02-0.28c0.38,0,0.72,0.1,1.03,0.3s0.55,0.49,0.74,0.87l-0.13,1.12
			c0-0.26-0.05-0.49-0.14-0.69c-0.09-0.2-0.23-0.36-0.42-0.47c-0.18-0.11-0.4-0.17-0.65-0.17c-0.39,0-0.69,0.12-0.91,0.38
			c-0.21,0.25-0.32,0.6-0.32,1.06v2.09c0,0.43,0.11,0.77,0.32,1.01c0.21,0.24,0.52,0.36,0.91,0.36c0.26,0,0.47-0.06,0.65-0.17
			c0.18-0.11,0.32-0.27,0.41-0.47c0.1-0.2,0.14-0.43,0.14-0.69l0.09,1.15c-0.14,0.37-0.35,0.65-0.64,0.85
			c-0.29,0.2-0.64,0.3-1.05,0.3C229.5,395.66,229.16,395.57,228.87,395.38z M231.51,386.27h1.09v9.28h-1.09V386.27z"/>
		<path d="M237.36,388.93h1.09v9.32h-1.09V388.93z M238.98,395.35c-0.29-0.2-0.5-0.48-0.62-0.84l0.09-1.2
			c0,0.28,0.05,0.52,0.14,0.72s0.23,0.36,0.41,0.48c0.18,0.11,0.4,0.17,0.65,0.17c0.4,0,0.7-0.13,0.92-0.38
			c0.22-0.26,0.33-0.61,0.33-1.07v-1.98c0-0.46-0.11-0.82-0.33-1.07c-0.22-0.25-0.52-0.38-0.92-0.38c-0.26,0-0.47,0.06-0.65,0.17
			s-0.32,0.27-0.41,0.47c-0.09,0.21-0.14,0.44-0.14,0.7l-0.13-1.09c0.17-0.4,0.41-0.7,0.72-0.9c0.31-0.21,0.67-0.31,1.06-0.31
			c0.4,0,0.74,0.09,1.02,0.28c0.28,0.19,0.5,0.46,0.64,0.82c0.15,0.36,0.22,0.8,0.22,1.31v2c0,0.51-0.08,0.94-0.23,1.3
			c-0.15,0.36-0.38,0.64-0.67,0.83s-0.64,0.28-1.05,0.28C239.63,395.65,239.28,395.55,238.98,395.35z"/>
		<path d="M243.86,395.15c-0.35-0.33-0.52-0.82-0.52-1.46c0-0.69,0.18-1.21,0.54-1.56c0.36-0.35,0.89-0.53,1.6-0.53h1.52l0.09,0.91
			h-1.61c-0.37,0-0.65,0.1-0.84,0.3c-0.19,0.2-0.28,0.49-0.28,0.88c0,0.34,0.1,0.6,0.31,0.78c0.21,0.17,0.51,0.26,0.92,0.26
			c0.45,0,0.78-0.08,1.01-0.23c0.23-0.15,0.34-0.38,0.34-0.68l0.13,0.74c-0.06,0.24-0.17,0.45-0.32,0.61
			c-0.15,0.16-0.33,0.29-0.56,0.36c-0.23,0.08-0.5,0.12-0.8,0.12C244.72,395.65,244.2,395.48,243.86,395.15z M246.95,391.03
			c0-0.4-0.11-0.7-0.32-0.93c-0.21-0.22-0.52-0.33-0.91-0.33c-0.29,0-0.54,0.07-0.75,0.2c-0.22,0.13-0.38,0.32-0.48,0.55l-0.92-0.27
			c0.13-0.45,0.38-0.8,0.75-1.05c0.37-0.25,0.84-0.38,1.39-0.38c0.48,0,0.89,0.09,1.23,0.26c0.34,0.17,0.6,0.42,0.78,0.75
			S248,390.54,248,391v4.55h-1.05V391.03z"/>
		<path d="M250.41,395.38c-0.29-0.18-0.51-0.45-0.66-0.8c-0.15-0.35-0.23-0.77-0.23-1.25v-2.13c0-0.5,0.08-0.93,0.23-1.29
			c0.15-0.35,0.37-0.62,0.65-0.81c0.28-0.18,0.62-0.28,1.02-0.28c0.38,0,0.73,0.1,1.03,0.3c0.3,0.2,0.55,0.49,0.74,0.87l-0.13,1.11
			c0-0.26-0.05-0.49-0.14-0.69c-0.1-0.2-0.23-0.35-0.42-0.47c-0.18-0.11-0.4-0.17-0.65-0.17c-0.39,0-0.7,0.13-0.92,0.38
			c-0.22,0.25-0.33,0.61-0.33,1.06v2.11c0,0.44,0.11,0.78,0.33,1.02c0.22,0.24,0.52,0.36,0.92,0.36c0.25,0,0.47-0.06,0.65-0.18
			s0.32-0.27,0.42-0.47c0.1-0.2,0.15-0.42,0.15-0.68l0.09,1.14c-0.14,0.37-0.35,0.65-0.64,0.85c-0.29,0.2-0.64,0.3-1.06,0.3
			C251.05,395.65,250.7,395.56,250.41,395.38z M250.28,397.84c-0.36-0.27-0.58-0.66-0.66-1.17l1.01-0.29
			c0.06,0.29,0.18,0.51,0.38,0.67c0.2,0.16,0.44,0.24,0.74,0.24c0.42,0,0.74-0.12,0.97-0.35c0.23-0.23,0.34-0.56,0.34-0.99v-7.02
			h1.08v6.94c0,0.5-0.09,0.93-0.28,1.29s-0.47,0.63-0.83,0.81c-0.36,0.19-0.8,0.28-1.32,0.28
			C251.12,398.24,250.64,398.11,250.28,397.84z"/>
		<path d="M256.81,395.34c-0.37-0.2-0.65-0.5-0.84-0.88c-0.19-0.38-0.29-0.85-0.29-1.39v-1.53c0-0.57,0.09-1.06,0.28-1.46
			c0.19-0.4,0.46-0.71,0.81-0.92c0.35-0.21,0.78-0.32,1.29-0.32c0.49,0,0.9,0.11,1.25,0.32c0.34,0.21,0.61,0.52,0.79,0.92
			s0.27,0.89,0.27,1.46v1.15h-3.94v-0.93h2.9v-0.38c0-0.49-0.11-0.88-0.33-1.15c-0.22-0.27-0.53-0.41-0.93-0.41
			c-0.42,0-0.75,0.14-0.99,0.43c-0.23,0.29-0.35,0.69-0.35,1.21v1.63c0,0.49,0.13,0.86,0.38,1.13c0.25,0.27,0.6,0.4,1.05,0.4
			c0.29,0,0.53-0.07,0.73-0.21c0.2-0.14,0.33-0.34,0.41-0.6l1,0.32c-0.12,0.5-0.36,0.88-0.73,1.13c-0.37,0.26-0.84,0.39-1.41,0.39
			C257.62,395.65,257.17,395.54,256.81,395.34z"/>
		<path d="M265.7,395.38c-0.29-0.18-0.51-0.45-0.66-0.8c-0.15-0.35-0.23-0.77-0.23-1.26v-2.12c0-0.51,0.07-0.94,0.22-1.29
			c0.15-0.36,0.36-0.63,0.65-0.81c0.28-0.19,0.62-0.28,1.02-0.28c0.38,0,0.72,0.1,1.03,0.3s0.55,0.49,0.74,0.87l-0.13,1.12
			c0-0.26-0.05-0.49-0.14-0.69c-0.09-0.2-0.23-0.36-0.42-0.47c-0.18-0.11-0.4-0.17-0.65-0.17c-0.39,0-0.7,0.12-0.91,0.38
			c-0.21,0.25-0.32,0.6-0.32,1.06v2.09c0,0.43,0.11,0.77,0.32,1.01c0.21,0.24,0.52,0.36,0.91,0.36c0.25,0,0.47-0.06,0.65-0.17
			c0.18-0.11,0.32-0.27,0.41-0.47c0.1-0.2,0.14-0.43,0.14-0.69l0.09,1.15c-0.14,0.37-0.35,0.65-0.64,0.85
			c-0.29,0.2-0.64,0.3-1.05,0.3C266.33,395.66,265.99,395.57,265.7,395.38z M268.34,386.27h1.09v9.28h-1.09V386.27z"/>
		<path d="M272.03,395.36c-0.34-0.19-0.61-0.46-0.79-0.82c-0.18-0.36-0.27-0.79-0.27-1.3v-2.05c0-0.5,0.09-0.93,0.27-1.29
			c0.18-0.36,0.45-0.63,0.79-0.81c0.34-0.19,0.76-0.28,1.25-0.28c0.49,0,0.9,0.09,1.25,0.28c0.35,0.18,0.61,0.46,0.79,0.81
			c0.18,0.36,0.27,0.78,0.27,1.29v2.07c0,0.5-0.09,0.93-0.27,1.29c-0.18,0.36-0.45,0.63-0.79,0.81c-0.35,0.19-0.77,0.28-1.25,0.28
			C272.79,395.65,272.37,395.55,272.03,395.36z M274.18,394.26c0.21-0.24,0.32-0.57,0.32-1.01v-2.05c0-0.43-0.11-0.76-0.32-1
			s-0.52-0.35-0.91-0.35c-0.39,0-0.69,0.12-0.9,0.35c-0.21,0.24-0.32,0.57-0.32,1v2.05c0,0.43,0.11,0.77,0.32,1.01
			s0.51,0.36,0.9,0.36C273.66,394.62,273.97,394.5,274.18,394.26z"/>
		<path d="M278.13,395.34c-0.37-0.2-0.65-0.5-0.84-0.88c-0.19-0.38-0.29-0.85-0.29-1.39v-1.53c0-0.57,0.09-1.06,0.28-1.46
			c0.19-0.4,0.46-0.71,0.81-0.92c0.35-0.21,0.78-0.32,1.29-0.32c0.49,0,0.9,0.11,1.25,0.32c0.34,0.21,0.61,0.52,0.79,0.92
			s0.27,0.89,0.27,1.46v1.15h-3.94v-0.93h2.9v-0.38c0-0.49-0.11-0.88-0.33-1.15c-0.22-0.27-0.53-0.41-0.93-0.41
			c-0.42,0-0.75,0.14-0.99,0.43c-0.23,0.29-0.35,0.69-0.35,1.21v1.63c0,0.49,0.13,0.86,0.38,1.13c0.25,0.27,0.6,0.4,1.05,0.4
			c0.29,0,0.53-0.07,0.73-0.21c0.2-0.14,0.33-0.34,0.41-0.6l1,0.32c-0.12,0.5-0.36,0.88-0.73,1.13c-0.37,0.26-0.84,0.39-1.41,0.39
			C278.94,395.65,278.5,395.54,278.13,395.34z"/>
		<path d="M284,395.48c-0.33-0.11-0.59-0.28-0.81-0.51c-0.21-0.23-0.37-0.52-0.48-0.86l0.93-0.42c0.15,0.33,0.35,0.58,0.6,0.75
			s0.54,0.25,0.87,0.25c0.45,0,0.79-0.09,1.03-0.27c0.24-0.18,0.36-0.44,0.36-0.78c0-0.23-0.06-0.41-0.18-0.53
			c-0.12-0.12-0.28-0.21-0.46-0.27c-0.19-0.06-0.44-0.11-0.77-0.16c-0.02,0-0.04-0.01-0.07-0.01c-0.03,0-0.06-0.01-0.1-0.02
			c-0.01,0-0.02-0.01-0.03-0.01s-0.03,0-0.04-0.01c-0.39-0.07-0.71-0.16-0.98-0.26s-0.49-0.29-0.67-0.54s-0.27-0.59-0.27-1.02
			c0-0.44,0.09-0.8,0.26-1.09c0.17-0.29,0.43-0.51,0.76-0.67c0.33-0.15,0.74-0.23,1.23-0.23c0.38,0,0.71,0.05,1.01,0.15
			c0.29,0.1,0.54,0.25,0.74,0.45c0.2,0.2,0.35,0.46,0.46,0.77l-0.95,0.42c-0.13-0.28-0.3-0.49-0.52-0.63
			c-0.21-0.14-0.46-0.21-0.75-0.21c-0.4,0-0.7,0.08-0.9,0.25c-0.21,0.17-0.31,0.42-0.31,0.76c0,0.22,0.06,0.38,0.18,0.5
			s0.28,0.2,0.47,0.26c0.19,0.05,0.46,0.11,0.79,0.16c0,0,0.01,0,0.02,0c0.01,0,0.02,0,0.02,0c0.01,0,0.02,0.01,0.03,0.01
			s0.02,0,0.03,0c0.41,0.07,0.76,0.16,1.04,0.26c0.28,0.1,0.52,0.29,0.71,0.55c0.19,0.27,0.28,0.63,0.28,1.11
			c0,0.43-0.09,0.79-0.28,1.09c-0.19,0.3-0.46,0.53-0.82,0.68c-0.36,0.15-0.8,0.23-1.32,0.23C284.7,395.65,284.32,395.59,284,395.48
			z"/>
		<path d="M292.04,388.93h1.09v6.62h-1.09V388.93z M295.63,391.22c0-0.45-0.11-0.79-0.33-1.03s-0.53-0.35-0.94-0.35
			c-0.4,0-0.71,0.11-0.92,0.34c-0.21,0.23-0.32,0.56-0.32,0.99l-0.13-1.11c0.18-0.42,0.42-0.73,0.73-0.93s0.67-0.31,1.08-0.31
			c0.62,0,1.09,0.2,1.42,0.6c0.33,0.4,0.5,0.97,0.5,1.72v4.42h-1.09V391.22z"/>
		<path d="M299.32,395.36c-0.34-0.19-0.61-0.46-0.79-0.82c-0.18-0.36-0.27-0.79-0.27-1.3v-2.05c0-0.5,0.09-0.93,0.27-1.29
			c0.18-0.36,0.45-0.63,0.79-0.81c0.34-0.19,0.76-0.28,1.25-0.28c0.49,0,0.9,0.09,1.25,0.28c0.35,0.18,0.61,0.46,0.79,0.81
			c0.18,0.36,0.27,0.78,0.27,1.29v2.07c0,0.5-0.09,0.93-0.27,1.29c-0.18,0.36-0.45,0.63-0.79,0.81c-0.35,0.19-0.77,0.28-1.25,0.28
			C300.08,395.65,299.66,395.55,299.32,395.36z M301.47,394.26c0.21-0.24,0.32-0.57,0.32-1.01v-2.05c0-0.43-0.11-0.76-0.32-1
			s-0.52-0.35-0.91-0.35c-0.39,0-0.69,0.12-0.9,0.35c-0.21,0.24-0.32,0.57-0.32,1v2.05c0,0.43,0.11,0.77,0.32,1.01
			s0.51,0.36,0.9,0.36C300.95,394.62,301.26,394.5,301.47,394.26z"/>
		<path d="M303.94,388.93h2.92v1h-2.92V388.93z M304.99,395.14c-0.25-0.29-0.38-0.73-0.38-1.31V387h1.09v6.84
			c0,0.23,0.05,0.41,0.15,0.53c0.1,0.12,0.25,0.18,0.44,0.18h0.56v1.03h-0.69C305.63,395.58,305.24,395.43,304.99,395.14z"/>
		<path d="M312.34,395.34c-0.37-0.2-0.65-0.5-0.84-0.88c-0.19-0.38-0.29-0.85-0.29-1.39v-1.53c0-0.57,0.09-1.06,0.28-1.46
			c0.19-0.4,0.46-0.71,0.81-0.92c0.35-0.21,0.78-0.32,1.29-0.32c0.49,0,0.9,0.11,1.25,0.32c0.34,0.21,0.61,0.52,0.79,0.92
			s0.27,0.89,0.27,1.46v1.15h-3.94v-0.93h2.9v-0.38c0-0.49-0.11-0.88-0.33-1.15c-0.22-0.27-0.53-0.41-0.93-0.41
			c-0.42,0-0.75,0.14-0.99,0.43c-0.23,0.29-0.35,0.69-0.35,1.21v1.63c0,0.49,0.13,0.86,0.38,1.13c0.25,0.27,0.6,0.4,1.05,0.4
			c0.29,0,0.53-0.07,0.73-0.21c0.2-0.14,0.33-0.34,0.41-0.6l1,0.32c-0.12,0.5-0.36,0.88-0.73,1.13c-0.37,0.26-0.84,0.39-1.41,0.39
			C313.15,395.65,312.7,395.54,312.34,395.34z"/>
		<path d="M318.97,391.92l0.54,0.95l-1.64,2.68h-1.19L318.97,391.92z M318.99,392.51l-2.23-3.59h1.2l1.7,2.97l2.37,3.65h-1.19
			L318.99,392.51z M319.28,391.56l1.45-2.64h1.2l-2.17,3.55L319.28,391.56z"/>
		<path d="M323.25,386.39h1.09v1.08h-1.09V386.39z M323.25,388.93h1.09v6.62h-1.09V388.93z"/>
		<path d="M326.89,395.48c-0.33-0.11-0.59-0.28-0.81-0.51c-0.21-0.23-0.37-0.52-0.48-0.86l0.93-0.42c0.15,0.33,0.35,0.58,0.6,0.75
			s0.54,0.25,0.87,0.25c0.45,0,0.79-0.09,1.03-0.27c0.24-0.18,0.36-0.44,0.36-0.78c0-0.23-0.06-0.41-0.18-0.53
			c-0.12-0.12-0.28-0.21-0.46-0.27c-0.19-0.06-0.44-0.11-0.77-0.16c-0.02,0-0.04-0.01-0.07-0.01c-0.03,0-0.06-0.01-0.1-0.02
			c-0.01,0-0.02-0.01-0.03-0.01s-0.03,0-0.04-0.01c-0.39-0.07-0.71-0.16-0.98-0.26s-0.49-0.29-0.67-0.54s-0.27-0.59-0.27-1.02
			c0-0.44,0.09-0.8,0.26-1.09c0.17-0.29,0.43-0.51,0.76-0.67c0.33-0.15,0.74-0.23,1.23-0.23c0.38,0,0.71,0.05,1.01,0.15
			c0.29,0.1,0.54,0.25,0.74,0.45c0.2,0.2,0.35,0.46,0.46,0.77l-0.95,0.42c-0.13-0.28-0.3-0.49-0.52-0.63
			c-0.21-0.14-0.46-0.21-0.75-0.21c-0.4,0-0.7,0.08-0.9,0.25c-0.21,0.17-0.31,0.42-0.31,0.76c0,0.22,0.06,0.38,0.18,0.5
			s0.28,0.2,0.47,0.26c0.19,0.05,0.46,0.11,0.79,0.16c0,0,0.01,0,0.02,0c0.01,0,0.02,0,0.02,0c0.01,0,0.02,0.01,0.03,0.01
			s0.02,0,0.03,0c0.41,0.07,0.76,0.16,1.04,0.26c0.28,0.1,0.52,0.29,0.71,0.55c0.19,0.27,0.28,0.63,0.28,1.11
			c0,0.43-0.09,0.79-0.28,1.09c-0.19,0.3-0.46,0.53-0.82,0.68c-0.36,0.15-0.8,0.23-1.32,0.23
			C327.59,395.65,327.21,395.59,326.89,395.48z"/>
		<path d="M331.35,388.93h2.92v1h-2.92V388.93z M332.4,395.14c-0.25-0.29-0.38-0.73-0.38-1.31V387h1.09v6.84
			c0,0.23,0.05,0.41,0.15,0.53c0.1,0.12,0.25,0.18,0.44,0.18h0.56v1.03h-0.69C333.04,395.58,332.65,395.43,332.4,395.14z"/>
		<path d="M335.55,394.36h1.18v1.19h-1.18V394.36z"/>
	</g>
	<polyline class="st2" points="133.21,172.2 133.21,137.67 312.7,137.67 312.7,214.39 	"/>
	<polyline class="st2" points="249.44,113.13 249.44,156.36 368.46,156.36 368.46,176.03 	"/>
	<path class="st2" d="M137.49,176.48c0,2.37-1.92,4.28-4.28,4.28c-2.37,0-4.28-1.92-4.28-4.28c0-2.37,1.92-4.28,4.28-4.28
		C135.57,172.2,137.49,174.12,137.49,176.48z"/>
	<circle class="st2" cx="249.44" cy="108.85" r="4.28"/>
	<path class="st2" d="M372.75,180.76c0,2.37-1.92,4.28-4.28,4.28c-2.37,0-4.28-1.92-4.28-4.28c0-2.37,1.92-4.28,4.28-4.28
		C370.83,176.48,372.75,178.4,372.75,180.76z"/>
	<path class="st2" d="M316.98,219.38c0,2.37-1.92,4.28-4.28,4.28s-4.28-1.92-4.28-4.28c0-2.37,1.92-4.28,4.28-4.28
		S316.98,217.02,316.98,219.38z"/>
	<g>
		<line class="st2" x1="105.29" y1="305.16" x2="95.16" y2="315.3"/>
		<line class="st2" x1="95.16" y1="305.16" x2="105.29" y2="315.3"/>
	</g>
	<g>
		<line class="st2" x1="110.36" y1="158" x2="100.23" y2="168.13"/>
		<line class="st2" x1="100.23" y1="158" x2="110.36" y2="168.13"/>
	</g>
	<g>
		<line class="st2" x1="439.07" y1="272.88" x2="428.93" y2="283.01"/>
		<line class="st2" x1="428.93" y1="272.88" x2="439.07" y2="283.01"/>
	</g>
	<path class="st5" d="M151.47,100.16c-3.23,0-6.19,1.16-8.49,3.09c-2.35-7.06-8.99-12.16-16.84-12.16
		c-8.79,0-16.06,6.39-17.49,14.77c-0.93-0.26-1.9-0.42-2.91-0.42c-5.84,0-10.58,4.74-10.58,10.58c0,5.37,4.01,9.8,9.2,10.48v0.1
		h47.11c7.3,0,13.22-5.92,13.22-13.22C164.69,106.08,158.77,100.16,151.47,100.16z"/>
	<path class="st2" d="M396.6,167.42c2.35,0,4.5,0.84,6.17,2.24c1.7-5.13,6.53-8.83,12.24-8.83c6.38,0,11.67,4.64,12.7,10.73
		c0.67-0.19,1.38-0.3,2.12-0.3c4.24,0,7.69,3.44,7.69,7.69c0,3.9-2.91,7.12-6.69,7.61v0.07H396.6c-5.3,0-9.61-4.3-9.61-9.61
		S391.3,167.42,396.6,167.42z"/>
	<path class="st2" d="M443.79,349.11c-1.97,0-3.77,0.71-5.17,1.88c-1.43-4.3-5.48-7.41-10.26-7.41c-5.35,0-9.79,3.89-10.65,9
		c-0.56-0.16-1.16-0.25-1.77-0.25c-3.56,0-6.45,2.89-6.45,6.45c0,3.27,2.44,5.97,5.61,6.38v0.06h28.7c4.45,0,8.06-3.61,8.06-8.06
		C451.84,352.72,448.24,349.11,443.79,349.11z"/>
	<path class="st2" d="M54.25,332.11c2.35,0,4.5,0.84,6.17,2.24c1.7-5.13,6.53-8.83,12.24-8.83c6.38,0,11.67,4.64,12.7,10.73
		c0.67-0.19,1.38-0.3,2.12-0.3c4.24,0,7.69,3.44,7.69,7.69c0,3.9-2.91,7.12-6.69,7.61v0.07H54.25c-5.3,0-9.61-4.3-9.61-9.61
		C44.65,336.41,48.95,332.11,54.25,332.11z"/>
	<path class="st6" d="M164.69,93.82c0,0,60.44-49.28,142.56-26.58c86.26,23.85,103.53,85.36,103.53,85.36"/>
	<path class="st7" d="M73.43,237.04c-23.43,3.63-35.21,53.36-8.85,73.1"/>
	<path class="st6" d="M368.46,380.53c0,0,40.14,17.55,57.73-6.93"/>
	<line class="st2" x1="177.51" y1="180.76" x2="177.51" y2="155.42"/>
	<line class="st2" x1="171.39" y1="180.76" x2="171.39" y2="168.13"/>
	<line class="st2" x1="270.67" y1="186.63" x2="270.67" y2="168.09"/>
	<line class="st2" x1="263.72" y1="185.05" x2="263.72" y2="177.36"/>
	<line class="st2" x1="257.55" y1="185.05" x2="257.55" y2="172.2"/>
	<line class="st2" x1="183.39" y1="180.76" x2="183.39" y2="168.09"/>
	<line class="st2" x1="351.4" y1="184.29" x2="351.4" y2="178.62"/>
	<line class="st2" x1="345.28" y1="184.29" x2="345.28" y2="170.48"/>
	<line class="st2" x1="357.28" y1="184.29" x2="357.28" y2="174.43"/>
</g>
<g id="DESIGNED_BY_FREEPIK">
</g>
</svg>
